<?xml version="1.0" encoding="utf-8"?>
<!-- Svg Vector Icons : http://www.onlinewebfonts.com/icon -->
<!DOCTYPE svg PUBLIC "-//W3C//DTD SVG 1.1//EN" "http://www.w3.org/Graphics/SVG/1.1/DTD/svg11.dtd">
<svg version="1.1" xmlns="http://www.w3.org/2000/svg" xmlns:xlink="http://www.w3.org/1999/xlink" x="0px" y="0px" viewBox="0 0 256 256" enable-background="new 0 0 256 256" xml:space="preserve">
<metadata> Svg Vector Icons : http://www.onlinewebfonts.com/icon </metadata>
<g><g><path fill="#000000" d="M218.7,40.5c-8.3,6.2-16.2,12.9-24,19.6c4.1,24.2-30.7,27.9-34.9,8.2c-3.1-0.4-5.7-1-8.7-1.5c-2.6-0.5-6.1-2.1-8.4-1.8c-1.7,0.2-3.6,3.1-5.1,4.1c-4.5,2.7-11,3.5-16.6,1c-8.4,6.1-16.2,12.9-24.5,19.1c3.5,16.5-13.8,26.4-27.3,18.9c-7.3,3.9-14.1,8.4-21.4,12.2c1.6,25.3-33.7,25.5-35.7,3.9c-1.3-14.4,13.4-24.3,27.3-17.3c7.4-4,14.4-8.4,21.7-12.5C60.3,80.3,74,71,86.6,76.7c8.2-6.1,16-12.6,24-18.9c-1.7-13,5.9-22.3,17.6-22.2c9.1,0,15,5.8,17.3,13.8c2.8,0.8,5.5,1,8.4,1.5c2.5,0.5,5.9,2.2,8.2,1.8c1.9-0.3,3.6-3.5,5.3-4.6c4.6-2.8,12.1-3.6,17.3-1c8.3-6.1,15.9-12.8,23.7-19.4c-1-12.2,5.3-20.4,15.6-21.4c26.1-2.7,26.6,38.4-0.2,35.7C221.9,41.8,220.7,41.3,218.7,40.5z"/><path fill="#000000" d="M238,249.8c-7.9,0-15.8,0-23.7,0c-9.3-2.1-7.9-11-7.9-22.7c0-34.3,0-67.7,0-101.7c0-5.4-0.8-12.9,0.5-16.6c2.4-6.6,9.9-6.4,19.4-6.4c5,0,10.6-0.5,13.8,0.8c7,2.9,5.9,11.7,5.9,21.7c0,35.1,0,68.1,0,102C245.9,238.8,247.3,247.8,238,249.8z"/><path fill="#000000" d="M139.9,249.8c-7.9,0-15.8,0-23.7,0c-8.5-2.3-7.9-8.6-7.9-19.6c0-29.9,0-58.5,0-87.2c0-4.8-0.6-10.3,0.5-14c2.4-7.7,9.5-6.9,19.4-6.9c4.4,0,10.1-0.6,13.2,0.5c7.5,2.6,6.4,10.7,6.4,20.7c0,29.2,0,57,0,86.2C147.8,240.2,148.5,248.2,139.9,249.8z"/><path fill="#000000" d="M189.1,249.8c-7.9,0-15.8,0-23.7,0c-8.4-2.2-7.9-8-7.9-18.6c0-23.7,0-47.7,0-70.9c0-3.5-0.6-8.9,0.2-11.7c2.5-7.5,9-6.9,19.4-6.9c4.5,0,10-0.6,13.3,0.5c9.1,3,6.6,17.8,6.6,29.3c0,16.2,0,32.8,0,48.5C197,232.8,199.7,247.8,189.1,249.8z"/><path fill="#000000" d="M90.9,249.8c-7.9,0-15.8,0-23.7,0c-10.2-2.1-7.9-14.1-7.9-27.5c0-13.8,0-29.8,0-43.1c0-6.7-1.2-16.1,0.5-21.2c2.5-7.4,9.8-6.4,19.1-6.4c4.2,0,9.6-0.7,13,0.2c9,2.5,6.9,16.3,6.9,28.3c0,14.2,0,28.7,0,42.8C98.8,236.2,100.9,247.9,90.9,249.8z"/><path fill="#000000" d="M41.9,249.8c-7.9,0-15.8,0-23.7,0c-9.5-2.3-7.9-10.8-7.9-22.9c0-10.5,0-22.4,0-32.6c0-5.3-0.9-11.8,0.2-16.1c2.1-7.9,9.8-6.9,19.4-6.9c3.9,0,10.4-0.7,13,0.2c8.2,2.9,6.9,11.5,6.9,22.7c0,12.1,0,22,0,33.7C49.9,239.1,50.9,248,41.9,249.8z"/></g></g>
</svg>